<svg version="1" xmlns="http://www.w3.org/2000/svg">
   <symbol id="logo" width="2016" height="2016" viewBox="0 0 1512.000000 1512.000000">
      <path id="logo" d="M719 1.1C551 9.4 394 71.9 264.4 182c-20.4 17.3-65.1 62-82.4 82.4C40 431.5-22.5 645.6 7.6 861.5 27.5 1004 87 1135.9 182 1247.6c17.3 20.4 62 65.1 82.4 82.4 111.7 95 243.4 154.4 386.1 174.4 105.1 14.7 213.5 7.1 314.4-21.9 104-30 198.6-81 282.7-152.5 20.4-17.3 65.1-62 82.4-82.4 150.3-176.9 211.3-406.4 168.4-633.5-24.3-128.4-81.7-247.7-168.4-349.7-17.3-20.4-62-65.1-82.4-82.4C1098.7 55.5 912-8.4 719 1.1zm34.5 20.3c4.7 1.5 10.6 6 10.4 8 0 .6-2.1 2.8-4.5 5l-4.4 3.8-3-2.6c-10.2-8.5-26.7-.3-21 10.5 1.3 2.4 7.2 5.4 13.6 7 11.1 2.7 18.3 8.3 20.4 15.7 3 10.9-2 21.6-12.6 26.8-10.5 5.1-26.3 3.1-34.6-4.4-4.3-3.9-4.2-4.1 2.3-9.3l3.9-3 3.9 3.2c9.3 7.4 24.1 3.5 24.1-6.4 0-4.6-2.3-6.3-12.9-9.8-10.8-3.6-16-6.5-18.9-10.6-8.6-12.3-3.1-28.7 11.5-33.9 5-1.8 15.8-1.7 21.8 0zm75.6 2c8.6 1.8 13.2 4.3 19.2 10.1 8.8 8.4 12.9 21.8 10.8 34.8-3.1 18.7-16.9 31.4-35.4 32.5-19.3 1.1-34.5-8.9-40.2-26.7-2.6-7.9-1.8-21.7 1.7-29.3 5.1-11 15.6-19.5 26.8-21.7 6.6-1.3 9.7-1.2 17.1.3zm-133.7 2.8c1.5 1.3 2.9 3.7 3.2 5.5.5 2.7.1 3.7-2.4 6.3-3.9 3.9-7.4 3.9-11.3.1-1.7-1.8-2.9-4-2.9-5.6 0-3.4 5-8.5 8.4-8.5 1.4 0 3.6 1 5 2.2zm221 12.9c9.6 4.7 14.1 12.5 13.4 22.9-.8 10.5-3.5 14.7-20.2 31.7-12.9 13.3-15.3 15.3-18 15.3-3.5-.1-10.5-1.5-11.4-2.4-.3-.4 4.3-5.5 10.2-11.5l10.8-10.8-4.2-.7c-5.7-.9-11.1-3.8-14.8-8-10.8-12.3-3.7-34.6 12.2-38.7 5.8-1.5 16.9-.4 22 2.2zm-218 13.1c.9 6.8 3.6 39.3 3.6 43.1 0 3.4 0 3.4-5.6 4.1-3.1.4-5.8.5-5.9.4-.3-.3-4.5-47.1-4.5-49.5 0-1.4 2.2-2 7.7-2.2l4.2-.1.5 4.2zm278.7 1.9c12.7 3.9 18.1 16.9 14.4 35-3.4 17.1-11.3 30.7-20.5 35.6-3.8 2.1-5.6 2.4-12.1 2.1-9.9-.4-16.1-3.9-19.8-11.3-2.3-4.4-2.6-6.2-2.6-15 .1-20 9.7-40 22-45.6 4.6-2.1 12.9-2.4 18.6-.8zm-433.7 3C555.8 60.5 568 84.4 568 105c0 16.1-6.6 24.8-20.4 26.6-6.9 1-12.9-1.1-19.1-6.8-13.4-12.2-20.8-41.9-14.1-56.4 4.7-10 16.7-14.7 29-11.3zm95.9 22.8c.5 2.5.5 4.7 0 5.2s-6.4 2-13.1 3.3c-13.8 2.6-14.2 2.5-14.5-4.6l-.2-4.3 10-2.2c5.5-1.2 11.6-2.1 13.5-2 3.2.2 3.5.5 4.3 4.6zm404.2-1.2c8.3 4.3 11.5 10.4 11.5 21.7 0 17.7-12 40.6-24.5 46.6-9.3 4.5-24.2 1.4-29.6-6.1-7.1-10-6.2-24.1 2.6-42.4 4.9-10.1 11.3-17.6 17.8-20.6 5.5-2.6 16.4-2.2 22.2.8zM484 82.5c8.4 4.4 18.8 20.1 22.5 34.1 3.8 14.5.8 28.6-7.2 33.7-18.3 11.8-37 .3-46.8-28.6-3.3-10.1-3.5-22.9-.4-29.4 3.9-8 12.4-12.5 22.4-11.9 3.4.2 7.6 1.1 9.5 2.1zm622.6 26.5c2.4 1.1 4.4 2.4 4.4 2.9s-5.4 11-12 23.2c-6.7 12.3-14.2 26.6-16.8 31.6-2.8 5.6-5.3 9.3-6.2 9.3-2.3 0-10-4.4-10-5.7 0-.7 1.1-3.2 2.4-5.5 1.3-2.4 6-11.3 10.6-19.8 4.5-8.5 9.5-17.9 11.1-20.8 1.6-2.8 2.4-5.2 1.8-5.2-.6 0-4 .8-7.5 1.7-7.4 2-8.3 1.5-8.7-4.2l-.2-3.8 12.5-2.8c6.9-1.5 12.9-2.8 13.3-2.8.4-.1 2.8.8 5.3 1.9zm-677 32c9.6 17.3 17.4 32.2 17.4 33 0 1.4-7.3 6-9.6 6-.6 0-2.8-3-4.8-6.8-2-3.7-5.1-9.4-6.9-12.7-1.9-3.3-6.4-11.6-10.2-18.4-7.3-13.3-7.3-13.3-10.1-4.6-.9 2.7-2 5.4-2.5 5.9-1.2 1.3-9.9-2.6-9.9-4.5 0-.8 2.2-6.9 4.8-13.5 4.4-10.8 5.2-12.1 8.8-14.1 2.1-1.3 4.3-2.1 4.8-2 .5.2 8.7 14.4 18.2 31.7zM794 116c135.6 8.2 263.4 58.1 367.5 143.5 115.8 94.9 194.5 225.8 223.4 371.5 18.2 91.5 15.9 189.4-6.5 279.5-33.4 134.3-109 253.5-216.9 342C1047.4 1346.1 904.7 1397 756 1397c-94.2 0-184.7-19.9-270.2-59.5-109-50.4-204.5-133.9-269.8-235.8C149.6 998 115 879.6 115 756c0-123.1 34.2-240.5 100.3-344.7 35.2-55.4 82.9-109 135.2-151.8 103.2-84.6 231.8-135.2 365-143.4 19.2-1.2 59.6-1.2 78.5-.1zm-426.6 28.6c6 2.1 11.1 7.1 14.3 14.1 2.2 4.8 2.6 7.6 3.4 22.1.4 9.2.8 20.1.8 24.2v7.5l-5.2 3.3-5.2 3.2-.6-2.7c-.4-1.6-.7-8.6-.8-15.7l-.1-12.9-2.2 2c-4.9 4.5-9.6 5.7-20.4 5.4-4.6-.1-11.8-5.5-15.5-11.4-2.7-4.4-3.3-6.4-3.6-12.7-.4-6.7-.2-8.1 2.4-12.9 3.3-6.5 8.3-10.7 15.5-13.2 6.6-2.3 11.1-2.4 17.2-.3zM312 182.4c0 1.3-.3 4.4-.6 7l-.7 4.6h-4.1c-10.4 0-19 10.7-14.1 17.6.8 1.2 2.7 2.7 4.3 3.3 2.9 1.2 5.5.6 20.2-4.8 16.4-6 29.4 3 29.4 20.4 0 11.5-5.9 20-17.8 25.6-6.7 3.2-16.9 4.1-17.9 1.6-.2-.6 0-3.7.6-6.8l1-5.6 5.3.1c4.4 0 6.1-.5 9.5-2.9 4.9-3.5 8.4-9.4 7.5-12.9-1.9-7.8-7.3-8.8-20.1-3.6-13.5 5.5-23.6 4.4-30-3.2-5.4-6.4-6.9-14.4-4.3-23 2.8-9.4 17-19.8 27-19.8 4.4 0 4.8.2 4.8 2.4zm842.8 7.8c13.4 9.5 12.6 8.4 9.4 12.9-1.5 2.1-3.2 3.9-3.9 3.9-1.2 0-22.3-14.7-22.3-15.6 0-1.7 4.9-7.4 6.3-7.4 1.1 0 5.8 2.8 10.5 6.2zm85.1 11.3c2.1 2.1 1.9 8-.4 10.5-2.7 3-10.8 2.9-12.9-.2-3.2-4.5-1.5-10.2 3.4-12.1 2.4-1 8.2.1 9.9 1.8zm-16.5 17.9l4 3.3-3 3.5c-5.4 6.5-21.7 25.2-25.6 29.5-2.1 2.4-4.6 4.3-5.6 4.3s-3.3-1.5-5.1-3.4l-3.4-3.5 2.4-2.9c9.4-11.7 29.7-34.1 30.9-34.2.8 0 3.3 1.5 5.4 3.4zm44.9 9.2c10 3.4 20.2 16.5 19.5 25-.2 2.2-.6 3.8-1 3.6-.5-.1-3.5-.2-6.8-.2h-6v-3c0-3.8-2-7.7-5.7-11.2-4.2-4-7.5-4.9-10.8-3.2-7 3.6-7.2 8.6-.9 20.9 7.1 13.7 7.1 21.6 0 29.3-6.2 6.9-19.6 8.9-28.4 4.3-6.2-3.2-11.4-8.2-14.6-14.1-2.9-5.3-4.6-15.2-2.8-16.4.5-.3 3.7-.3 7.1 0 6.1.7 6.1.7 6.1 3.9 0 4.4 2.3 9.5 5.7 12.6 5.5 5.2 10.1 6.2 13.9 3.1 5.3-4.2 5-8.3-1.4-20.7-5-9.6-5.6-18.4-1.8-24.9 5.6-9.5 16.3-13 27.9-9zM265 249.5c13.5 5.3 29.3 11.5 35.2 13.8 7.2 2.8 10.8 4.7 10.8 5.7 0 .9-2 3.5-4.4 5.9l-4.3 4.3-8.8-3.7-8.9-3.6-11.4 11.4-11.5 11.5 3.7 8.6c2.7 6.3 3.4 9.1 2.7 10.4-1.5 2.7-8 8.6-8.7 7.9-.6-.6-6.6-15.5-25.1-62.2-5.1-13-5.1-13.8-1.2-17.4 2.1-2 4.2-3 5.4-2.7 1.1.2 13 4.7 26.5 10.1zm1054.3 36.2c8 3.8 14.7 10.6 18.9 19.1 3.1 6.2 3.3 7.4 3.3 16.7 0 9-.3 10.6-2.9 16-3.8 7.7-12 15.8-19.3 19.3-5.3 2.4-6.9 2.7-17.3 2.7-10.3 0-12.1-.3-17-2.6-19.5-9.2-28.1-34-18.4-53.2 9.4-18.4 33.9-26.8 52.7-18zM215.9 335.6c1.7 1.4 3.1 3.2 3.1 3.9 0 1.4-14.6 21.5-15.6 21.5-1.5 0-7.4-5.4-7.4-6.8 0-2 14.1-21.1 15.7-21.1.6-.1 2.5 1.1 4.2 2.5zM1368.5 363c11.9 4 12.1 4.1 14.5 8.5 1.3 2.4 2.2 4.6 2 4.8-5.2 3.9-62.5 38.5-63.3 38.1-1.7-.6-6.1-8.9-5.4-10 .3-.5 11.4-7.7 24.6-15.9 17.9-11.2 23.7-15.2 22.4-15.7-1-.4-4.4-1.4-7.6-2.3-5.4-1.5-5.8-1.8-5.3-4 1.3-5.2 2.6-7.5 4.3-7.5 1 0 7.2 1.8 13.8 4zm-1213 40.6c22.1 12.7 30.1 17.7 30.3 19.2.2 1.1-.8 3.9-2.2 6.1l-2.6 4-9.2-5.3c-5.1-2.9-16.2-9.2-24.6-14-8.3-4.7-15.8-8.9-16.6-9.2-1.1-.4-1 1 .5 7.3 1 4.2 1.5 8 1.1 8.4-1.1 1-9.2 2-9.2 1.2 0-.5-.9-5.8-2-11.8-1.1-6.1-2.1-12.4-2.2-14.1-.1-3.8 3.8-10.8 5.5-9.7.7.4 14.7 8.5 31.2 17.9zm1235.6 24.5l24.6 2.2 2.7 5.4c1.4 2.9 2.6 5.9 2.6 6.6-.1.6-9 5.6-20 11s-20.2 10.2-20.5 10.7c-.3.5.1 2.3 1 3.9 2.3 4.6 1.9 6-2.7 8.1-4.9 2.2-6.2 1.8-7.8-2.1-1.7-4-2.4-4.3-6.1-2.4-1.7.9-4.9 2.3-7.1 3.1l-3.9 1.4-2.4-5.3-2.5-5.2 2.3-1.7c1.2-.9 4.3-2.7 6.9-3.9l4.7-2.2-6.5-12.8c-3.5-7.1-6.4-13.5-6.4-14.2 0-2.3 8.1-5.7 12.5-5.3 2.2.3 15.1 1.5 28.6 2.7zM124 443.5c4.1 1.5 10.7 4.7 14.7 7.1 12.2 7.6 17.2 15.2 17.3 26.2 0 10.1-5 18.2-13.5 21.8-14.8 6.2-46.6-6.3-55.5-21.8-2.5-4.5-3-6.3-3-12.4 0-20.7 16.4-29.3 40-20.9zm1308.6 33.3c10 5.1 14.6 16.7 11.3 28.7-1.4 5.3-11.4 15-19.3 18.9-10.7 5.1-16.7 6.8-26.7 7.3-8.8.5-10.1.3-15.2-2-10-4.6-15.2-15.4-12.8-26.4 2.8-12.2 19.4-23.9 40.2-28.3 6.7-1.4 18-.5 22.5 1.8zM98.6 505c15.6 3.9 27.8 11.9 32.5 21.2 3.3 6.4 3 15.3-.7 22.6-2.5 5-3.7 6.1-8.9 8.7-5.1 2.5-7.1 3-13.5 2.9-15.2-.1-33.1-7.3-41.8-16.9-4.1-4.5-5.3-6.6-6.2-11.2-2.6-12.4 3.5-24.2 14.5-28.1 4.9-1.7 15.6-1.3 24.1.8zM1454 540.6c12.9 7 15.9 25.4 6 36.7-8.2 9.3-25.6 15.7-42.5 15.7-8.4 0-10.8-.4-15-2.4-5.9-2.8-8.8-5.7-11.1-11.1-2.1-4.9-2.1-14.9-.1-19.8 3.4-8.1 16-16.4 30.2-20 9-2.3 11.3-2.6 19.8-2.1 6.1.3 8.9.9 12.7 3zM55.6 564.9c2.5.7 56 42.1 56.8 43.9.5 1.2-1.8 12-2.8 13-.3.2-4.5-2.7-9.3-6.5-4.8-3.9-16.8-13.4-26.6-21.2-9.8-7.7-18.2-14.1-18.6-14.1-.4 0-2.5 7.2-4.5 16-2.1 8.8-4.2 16.2-4.6 16.5-1.1.7-8.2-1.8-8.7-3-.2-.7 1.9-10.4 4.7-21.6 2.7-11.2 5.3-21.4 5.5-22.7.6-2.3.9-2.3 8.1-.3zm1412.9 46.6c9.4 7.9 10.1 8.7 10.8 13.1.4 2.6.4 5.1-.1 5.6-1.1 1.1-70.2 14-71.8 13.4-1.3-.5-3.4-10-2.5-11.4.3-.5 12.3-3 26.6-5.6 14.3-2.6 26.9-5 27.9-5.5 1.8-.7 1.3-1.3-3.5-5.1-3-2.3-5.4-4.7-5.4-5.2 0-1.8 5-7.7 6.5-7.8.8 0 6 3.8 11.5 8.5zm-1410 19.9c6.1 2.8 11.2 8.4 22.5 24.4 4.7 6.7 8.8 12.1 9.1 12.2.3 0 1.1-3.9 1.8-8.8.7-4.8 1.7-12 2.3-16.1l1.1-7.3 4.9.4c2.8.3 5.3 1 5.7 1.7.4.6-.8 11.1-2.6 23.3-1.8 12.3-3.3 22.8-3.3 23.4 0 1.9-2.2 2.1-7.7 1l-5.2-1.1-14-18.6c-7.6-10.2-15.1-19.6-16.6-20.7-5.9-4.6-14.1-3.4-16.3 2.5-2 5.4-2.1 6.2-1.1 9.8.9 3.2 4.4 6.5 8.2 7.8 1.1.3-1.2 9.8-2.8 11.5-2.7 3-13-5-16.2-12.5-1.6-3.9-1.7-12.8-.2-18.6 3.5-14 17.3-20.5 30.4-14.3zM67 697c25.9 4.9 39.3 32.5 27.5 56.6-14 28.5-56.9 27.6-70.9-1.6-2.8-6-3.1-7.3-3.1-16.5.1-13.2 2.5-19.7 10.4-27.5 10-9.9 22.2-13.6 36.1-11zm1379.4 16.6c.4 7.5.6 13.8.4 13.9-.2.2-2.7.7-5.5 1.1-6.2.8-5.9 1.5-6.8-15.8-.7-13.1-1.2-12.3 7.6-12.7l3.6-.1.7 13.6zm13.4 64.4c11.5 2.7 21.3 10.4 26.4 20.8 3.1 6.3 3.3 7.3 3.3 17.2 0 9.7-.2 11-3.1 17-4 8.4-10 14.4-18.2 18.3-6.2 3-7.5 3.2-17.2 3.2s-11-.2-17-3.1c-12.5-6-19.6-15.2-22.1-28.5-2.1-11.4 1.8-25.1 9.5-33.6 3.9-4.4 13.2-9.8 19.2-11.2 5.3-1.2 14-1.3 19.2-.1zm-1372 14.2c12.1 5.7 17.1 27 9.6 40.8-4.3 7.8-4.8 8-9.9 3-2.5-2.4-4.5-4.8-4.5-5.2 0-.4 1.1-2.3 2.4-4.2 1.3-2 2.7-5.1 3-7.1 1.9-9.7-6.1-18.9-13.9-15.9-2.3.9-4.1 4.8-6.5 14.4-3.4 13.4-6.7 18.3-14.2 21.5-4.8 2-13.1 1.9-17.3-.1-5-2.3-9.4-7-11.8-12.2-2.4-5.6-3.3-16.2-1.8-21.8 1.2-4.5 4.9-10.5 6.8-11.1 1.5-.5 9.3 6.5 9.3 8.4 0 .7-1 2.7-2.2 4.3-2.5 3.4-2.9 10-.8 14.9 2.6 6.3 10.8 7.7 14.9 2.5 1.1-1.4 2.9-6.5 4-11.4 3.4-14.8 7.2-20.2 15.8-22.6 5.7-1.6 11.2-1 17.1 1.8zm16.5 65.2c.4 2.7.4 5.3 0 5.7-1.1 1.1-47.2 8.1-48.8 7.5-1.5-.5-3-9.5-1.8-10.7 1-1 43.6-7.8 47.3-7.6 2.1.2 2.6.8 3.3 5.1zM41 860c2 0 5 4.5 5 7.5 0 6.5-6 10.1-11.8 7.1-6.2-3.2-5.7-11.9.9-14.5 1.3-.5 3-.8 3.7-.5.8.2 1.8.4 2.2.4zm1403.4 16.5c18.7 4.1 34.3 7.8 34.8 8.3.7.7-.8 10.6-1.8 12-.1.2-6.6-1.1-14.4-2.8-7.8-1.8-14.3-3-14.5-2.8-.7.7-7.6 32-7.2 32.5.2.2 6.7 1.7 14.3 3.4 7.6 1.8 14 3.2 14.1 3.3.1.1-.3 3-.9 6.5-1 5.5-1.4 6.2-3.2 5.8-1.2-.3-17.3-3.8-36-7.9l-33.8-7.3.6-5.5c.4-3 1.1-5.9 1.6-6.4.6-.6 6.4.3 15.5 2.3 8 1.8 15.1 3.1 15.8 2.8 1.3-.5 8.5-31.3 7.5-32.2-.2-.3-7.3-1.9-15.6-3.7-14.7-3.2-15.2-3.3-15.2-5.8 0-4 2-10 3.3-10 .7 0 16.5 3.4 35.1 7.5zM98.9 929c2.2 8.2 3.1 13.4 2.5 14-.6.6-3 1.3-5.5 1.6l-4.6.6-3.1-12.6c-1.8-6.9-3.2-13-3.2-13.5 0-.9 5.7-2.8 9-3 1.2-.1 2.4 3.2 4.9 12.9zm1302.4 20.9c2.3 6.6 2.2 7.7-1.1 9-3.6 1.5-9 8.5-9.8 12.6-1.1 6.1 4.3 12.9 10.3 12.9 3.9 0 7.4-3.2 16-14.6 5.6-7.4 11.2-10.2 19.3-9.6 7.3.5 13.1 4.1 16.2 10.1 1.8 3.4 2.3 5.8 2.3 12.7 0 7.3-.4 9.4-2.9 14.8-2.8 6-9.4 13.2-12.2 13.2-1.2 0-5.4-8.7-5.4-11.2 0-.7 1.6-2.3 3.6-3.6 6.8-4.4 9.3-15.3 4.5-19.6-5.7-5.1-12-3.4-18.3 5-13.1 17.4-19.9 20.5-31.8 14.4-13.2-6.8-16-26.1-5.9-41.3 3.2-4.9 9.1-9.7 11.9-9.7.9 0 2.2 1.9 3.3 4.9zM128.3 999l16.8 3.3 1.5 3.6c.9 2 1.8 5.1 2.1 6.9.5 3.1.4 3.3-1.8 2.7-5.4-1.2-26.4-5.3-26.6-5.1-.1.1.4 2 1.2 4.1 2.9 8.3 1.5 17.6-3.6 23.8-4.4 5.4-10 7.9-18.5 8.5-6.2.4-8 .1-12.7-2.1-9.7-4.4-15.5-15.7-14.4-27.9.9-9.8 5.4-15.8 15.2-20 5.9-2.6 20.3-1.9 40.8 2.2zm1271.6 28c14.3 16.2 26.1 29.9 26.1 30.5-.1.5-1.1 3-2.3 5.4l-2.2 4.4-10.5-.2c-5.8-.1-22.9-.6-38-1.1-15.1-.5-28.1-1-28.7-1-2 0-1.5-4 1.1-8.9l2.3-4.5 9.6.3 9.6.3 4.6-9.9c2.6-5.4 5.6-12 6.7-14.6l2.1-4.8-6.1-6.2c-3.4-3.5-6.2-6.9-6.2-7.7 0-2 4.3-12 5.1-11.7.3.1 12.4 13.5 26.8 29.7zm-1253.3 18.5c1 1.9 2.2 3.5 2.7 3.5.4 0 3.5-1.4 6.8-3.1 4.7-2.3 6.4-2.7 7.4-1.9 1.5 1.2 5.1 9.8 4.4 10.4-.2.2-3.2 1.8-6.6 3.5-3.5 1.7-6.3 3.4-6.3 3.7 0 .2 3 6.3 6.6 13.4 3.6 7.2 6.3 13.4 6 13.9-.3.5-2.6 1.8-5.1 3l-4.4 2.1-27.6-2.5c-15.2-1.4-27.8-2.5-28-2.5-.3 0-1.8-2.7-3.5-5.9-3.4-6.9-3.9-6.2 8-12.1 4.7-2.3 13.6-6.9 19.7-10.2l11.3-5.9-2-3.9c-2.6-5-2.5-5.2 1.3-7.2 5.1-2.6 7.1-2.3 9.3 1.7zm1199.7 29.8c.3.8.8 3.9 1.2 7 .7 5.6.7 5.7-1.7 5.7-3.3 0-10.3 5.2-12.4 9.1-2.6 5.2-2.1 9.9 1.5 13.1 5.2 4.7 8.5 3.6 20.6-6.7 10.8-9.1 19.9-10.3 29.6-4 8.2 5.4 10.8 19.4 5.6 30.8-3.4 7.4-9.9 14.4-14.9 15.9-4.7 1.4-5.2.9-6.6-6.2-1.1-6.1-.9-7 1.8-7 4.3 0 12-9.6 12-15 0-3.4-5.3-8-9.2-8-3.9 0-7.3 2-15.1 8.9-7.7 6.8-11.2 8.5-17.3 8.5-7 0-14-4.5-17.8-11.5-2.5-4.5-2.8-5.8-2.4-12.7.5-9.2 3-14.9 9.1-21.2 6.2-6.3 14.8-9.9 16-6.7zm-1144.7 36.5c1.3.8 6.4 9.5 6.4 10.8 0 .5-6.7.8-15.7.6l-15.8-.3 2.2 2.3c5.7 6.1 6.9 16.8 2.9 25.5-1.9 4-3.7 6-8.2 9-5.2 3.4-6.5 3.8-13.5 4.2-9.2.4-14.8-1.7-20-7.7-10.1-11.5-10.2-27-.3-36.2 5.6-5.2 10.1-7.1 18.4-8 8.9-1 42.2-1.1 43.6-.2zm26.5 40.6c14.6 7 20.4 26.5 11.6 38.9-2.9 4.2-9.4 8.6-15.1 10.2-2.8.8-14.5 2.4-26.1 3.5l-21 2.1-2.3-2.8c-3.9-4.7-5.5-7.3-4.8-8 .3-.3 6.9-1.1 14.6-1.6 14.2-1.1 16-1.8 12.3-4.8-5.1-4.2-7.2-18.1-3.8-25.2 2.2-4.8 9.5-11.1 14.8-13.1 5.3-2 15-1.6 19.8.8zm1055.9 25.5c5.2 4.1 13.1 10.5 17.5 14.1 4.4 3.6 10.2 8.4 12.8 10.5l4.8 3.9-.2-8.5-.2-8.4 4.5-.3 4.5-.3.7 3.8c.3 2.1.6 8.7.6 14.8 0 11 0 11-3.3 14.7l-3.2 3.6-28-22.7c-15.4-12.5-28.1-23.4-28.3-24.4-.5-2.3 5.6-9.9 7.1-9 .7.4 5.5 4.1 10.7 8.2zm-1009.6 27c2.1 2.2 3.7 4.4 3.5 4.9-.2.5-9.6 9.6-20.9 20.1-11.3 10.6-20.6 19.6-20.8 20.1-.2.5 3.2 1 7.5 1.2l7.8.3-.4 5c-.1 2.7-.4 5.1-.6 5.3-.2.2-6.8-.4-14.7-1.4l-14.3-1.7-3.2-3.7-3.3-3.7 26.8-25.1c14.7-13.8 27.2-25.1 27.7-25.2.6 0 2.8 1.8 4.9 3.9zm979.8 3.3c9 2.7 15.7 12.9 14.5 22l-.5 3.8h4.4c5.8 0 10.1 1.9 14.4 6.4 3.1 3.3 3.5 4.3 3.8 10.5.5 8.2-.9 13-5.1 17.8-6.6 7.5-14.6 10.5-22.4 8.4-8-2.2-13.3-9.1-13.3-17.4v-4.3h-6.8c-5.8.1-7.5-.3-11-2.6-5.6-3.7-9.3-10.3-9.9-17.8-.5-5.3-.2-6.7 2.7-12.6 5.9-12 17.6-17.7 29.2-14.2zm-936.5 38.4c9.1 4.3 17.3 15.9 17.3 24.4v4.1l-6.7-.3-6.8-.3-.7-4.8c-1.9-13.9-18.1-20.1-22.8-8.7-1.4 3.3-1.2 3.8 7.5 19.8 3.2 6 4.3 14.1 2.6 19.4-1.5 4.7-7.3 10.3-12.7 12.4-5.6 2.1-13.6 1.4-20-1.8-8.9-4.4-17.4-16-17.4-23.7 0-1.9.5-2.1 6.9-2.1h6.8l.7 4c.8 5 6.3 11.4 11.2 13 2.9 1 3.9.9 5.9-.4 6.9-4.5 7-10 .2-20.9-5.6-9-7.1-13.6-6.5-19.9.4-3.5 1.4-5.9 3.5-8.6 7.4-9.2 19-11.2 31-5.6zm895.3 9c10.4 5.6 22 18.4 27.1 30 1.7 3.6 2.2 6.9 2.3 12.9.1 8.9-1 11.9-6.6 17.4-4.5 4.6-9.2 6.4-16.4 6.4-8.7-.1-14.9-3.5-25.5-14.2-17.5-17.6-21.8-36.4-11.2-48.2 5.8-6.4 9.6-8 17.9-7.6 5.4.3 8.3 1 12.4 3.3zm-842.6 34.8l4.7 3.3-3.3 4.4c-1.8 2.4-9.4 12.7-16.7 22.9-7.4 10.2-14.3 19.4-15.3 20.6-1 1.1-1.8 2.2-1.8 2.5 0 .2 4 3.3 9 6.9 4.9 3.6 9 6.9 9 7.3 0 1.7-5.3 7.7-6.9 7.7-1.3 0-43.2-29.7-46.5-33-.9-.9 4.8-9 6.4-9 .4 0 4.3 2.5 8.6 5.6 4.3 3.1 8.3 5.8 8.9 6 .9.4 28.5-35.9 35-45.9.9-1.5 2.3-2.7 2.9-2.7.7 0 3.4 1.5 6 3.4zm791.4 3.7c13.6 6.8 27.6 27.5 28.9 42.6.7 9.2-1.2 14.6-7.1 20.1-5.3 4.9-10.2 6.6-17.5 6-7.9-.6-12.5-3.2-20.6-11.3-12.4-12.6-19.5-28.5-18-40.4.8-6.7 2.2-9.5 6.7-13.8 7.4-7.1 17.4-8.3 27.6-3.2zm-59.4 59.8l14.4 25.4 2.3-7.4c1.2-4.1 2.3-7.6 2.5-7.8.6-.8 10.4 3.2 10.4 4.2 0 .7-2.1 6.9-4.6 13.8-4.5 12.2-4.7 12.6-9 14.9-2.4 1.3-4.5 2.2-4.8 2-.2-.3-7.5-12.9-16.2-28-8.6-15.1-16.8-29.3-18.1-31.5-1.2-2.2-2.3-4.5-2.3-5.1 0-1.1 9-6.5 10.2-6.1.4.1 7.2 11.6 15.2 25.6zm-671.7-1.8c6.2 3.4 11.3 6.7 11.3 7.3 0 1.8-3.9 7.6-5.1 7.6-.8 0-22.2-11.3-23.7-12.6-.6-.5 4.3-8.4 5.2-8.4.5 0 6.1 2.8 12.3 6.1zm87.1 17.5c9.2 3 16.2 11.3 16.2 19.2v3.2h-6.5c-5.9 0-6.5-.2-6.5-2.1 0-6.8-8.4-13.8-15-12.4-6.5 1.4-11.9 10.7-10.6 17.9 1.3 6.9 9.9 12.5 20.3 13.4 3.5.2 6.3.5 6.3.6 0 1.4-15.1 35.1-15.8 35.4-.8.2-36.5-13.3-38-14.4-.7-.5 2.2-7.5 3.5-8.6.9-.7 4.8.4 13.9 4.1 7 2.8 12.9 5 13 4.8.2-.1 1.6-3.4 3.3-7.2 3.1-7.3 2.9-8.5-1.4-8.5-2.5 0-9.1-3.4-12.4-6.4-11.3-10.2-5.7-33.7 9.3-39 5.5-2 14.3-1.9 20.4 0zm517.3 15.1c1.1 2.5 1.6 5 1.2 5.4-1.2 1.1-23 9.9-24.6 9.9-1.2 0-5.5-9.7-4.6-10.4 1.5-1 22.8-9.5 24.2-9.5 1.2-.1 2.4 1.4 3.8 4.6zm-72.8 25.1c3.7 12.6 6.7 23.5 6.7 24.4 0 1.1-1.6 2-5.1 2.8-2.7.7-5.3 1-5.6.7-.7-.7-14.3-45.6-14.3-47.2 0-.6 1.7-1.6 3.8-2.2 7.9-2.2 7-3.6 14.5 21.5zm-384.7-19.3c12.2 5.1 17.5 16.5 13.5 28.8-1.5 4.5-8.2 10.4-12.8 11.3-3.9.7-4 1-1.1 4.1 1.7 1.8 2.3 3.9 2.6 8.8.4 5.6.1 7-2.2 10.9-3.4 5.8-9 8.6-17.3 8.6-18.9 0-30.5-14.6-23-29.1 1.8-3.4 3.5-5 7.7-7.1 4.2-2 5.1-2.8 3.8-3.3-2.2-.9-6.8-10.1-6.8-13.6 0-5.9 4.4-14.4 9.2-17.8 6.3-4.3 18.1-5.1 26.4-1.6zm350.4 8.8c2.5 1.2 4.6 3 4.8 3.9.4 2-4.7 9.7-6.3 9.8-.6 0-2.8-.9-5-2-5.3-2.7-10.9-2.6-16 .5-7.5 4.3-8.4 11.9-2 15.6 1.7 1 7.2 2.2 12.8 2.8 14.3 1.6 19.1 4 22.8 11.3 6.2 12.2 1.7 25.3-10.8 31.4-4.8 2.4-6.9 2.8-14.7 2.8-7 .1-10-.3-12.8-1.8-2.1-1-3.8-2.3-3.8-2.9 0-1.6 5.3-9.6 6.8-10.2.7-.2 2.7.4 4.5 1.5 5.2 3.2 11.6 2.3 16.6-2.3 3.3-3.1 4.2-6.1 3-9.7-1.6-4.4-5.5-6-18.6-7.5-13.5-1.6-17.8-3.8-21.2-10.7-2.6-5.5-2.9-15.4-.5-20.4 2.3-4.8 9.4-10.8 15.1-12.7 7.3-2.4 19.7-2.1 25.3.6zm-305.9 2.8l5.1 1.1-.6 3.7c-1.9 11.1-1.9 11.9 0 12.4 1.1.3 7.3 1.6 13.9 2.8 6.6 1.2 12.4 2.5 12.9 2.9.4.5.5 3.2.1 6-.7 5.1-1.2 5.8-19.1 25.1-10.2 10.9-18.9 20.1-19.4 20.4-1.4.9-10.7-.6-12.6-2-1.6-1.1-1.4-2.9 2.6-23.5 4.5-23.6 4.5-23.9-.5-24-4-.1-4.8-1.4-4-7l.7-5.2 5.3.7 5.3.6 1.2-6.8c1.8-9.5 1-8.9 9.1-7.2zm228.3 10.2c19.7 9 28.1 34.5 18 54.6-4.1 8.3-9.3 13.2-18.3 17.5-6 2.8-7.5 3.1-16.1 3.1-7.5-.1-10.7-.5-15.2-2.4-8.1-3.1-16-10.6-20-18.9-3.2-6.4-3.3-7.2-3.3-18.2 0-10.7.2-11.9 2.9-17.4 4.9-10 14.6-17.9 25.3-20.6 6.9-1.7 20.4-.6 26.7 2.3zm-148.7 1.2c5.8 2.5 10.4 6.4 12.4 10.9 3.3 7.3 2.8 8.1-6.5 9.2-5.2.6-5.3.6-5.9-2.3-1-5.2-3.8-7.5-9.4-8-8.5-.9-14.3 4.2-14.3 12.4 0 4.3 5.8 9 12.8 10.4l6.2 1.3v3.7c0 6.1-.7 6.9-5.9 6.9-6.3 0-11.9 1.7-13.1 4-1.5 2.8-1.2 9.2.5 11.7 1.9 2.7 7.8 4.7 11.3 3.8 1.5-.3 4.1-2 5.9-3.7l3.2-3.1 4.3 1.8c4.7 1.8 6.8 3.3 6.8 4.6 0 2-6.8 8.4-10.8 10.2-5.6 2.4-16.3 2.5-21.8.2-4.9-2-10.2-7-12-11.2-2.4-5.7-1.8-13.3 1.5-18.5 1.6-2.5 3.9-4.9 5-5.3 2.7-.8 2.6-1.6-.5-4.6-4.1-3.9-5.7-7.9-5.7-14.4 0-11.8 5.8-18.6 18.8-21.9 3.3-.8 13.3.3 17.2 1.9zm54.3 31.6v29.1l5.4-4.6c2.9-2.5 5.6-4.6 5.9-4.6 1.4 0 6.7 6.7 6.5 8.1-.2.9-4.8 5.3-10.3 9.8-9.6 7.8-10.1 8.1-15.2 8.1-3.5 0-5.3-.4-5.4-1.3-.3-5.5.3-65.2.8-69l.6-4.7H756v29.1zm216.3-.2c4.7 1.8 5.7 9 1.9 13.3-2.1 2.4-9.3 2.4-11.5 0-1.7-1.9-2.4-6.7-1.4-9.8 1.2-3.6 6.3-5.2 11-3.5z"/><path d="M810.5 36.9c-5.2 2.3-10.2 7.5-12.9 13.1-1.5 3.4-2.1 6.5-2.1 12.5 0 7 .4 8.7 2.9 13.3 6.9 12.4 21.9 16.5 34.8 9.5 8.3-4.5 12.8-13.1 12.8-24.4 0-7.7-2.4-13.9-7.1-18.7-6.9-6.9-19.6-9.3-28.4-5.3zM897.2 48c-4.3 2.7-7.6 9.9-6.7 14.6 1.4 7.6 9.9 13.2 17 11.3 9.2-2.6 12.7-16.6 5.7-23.2-5.2-5-10.7-5.9-16-2.7zM962.7 66c-11 9.6-17.9 39.9-10.8 47.4 7.7 8.1 15.9 3.2 23-13.8 3.8-9.2 5.7-19.5 4.7-26-1.5-10-9.9-13.8-16.9-7.6zM530.3 68.9c-7.2 4.5-8.2 13.6-3.2 28.5 5 14.9 11.3 22.6 18.5 22.6 9.3 0 12.7-11.1 8.4-26.8-5.4-19.5-15.2-29.6-23.7-24.3zM1026.5 88.1c-4.3 3.4-6 5.6-9.9 12.9-7 13.3-9.5 26.5-6.1 32.9 2 4.1 7.8 6.6 11.5 5.1 10.7-4.4 23.3-32.6 20.1-44.7-1.4-5-3.9-7.3-8.8-8-3-.4-4.5 0-6.8 1.8zM470.3 91.8c-3.3.5-8 5.6-8.7 9.5-1.3 6.9 4 22.5 11.3 33.1 3.9 5.6 10.8 10 14.5 9 3.7-.9 7.3-4.6 8.4-8.8 2.1-7.6-5.1-28.2-12.9-36.8-3.7-4.1-9.1-6.6-12.6-6zM717 131c-99.5 5.2-204.5 38.8-290 92.8-7.4 4.7-15.3 9.5-17.6 10.7-10.3 5.7-37.3 26.3-61.4 46.9-14.5 12.4-60.5 58.7-72.1 72.6-29.6 35.5-59.4 81-79.7 121.6-11.6 23.2-17.7 37.2-28.6 65.9-3.5 9-8.1 22.9-11.1 33-1.5 4.9-3.1 10.1-3.6 11.5-2.8 8-11.9 49.3-15 68.5-9.4 57.5-10.4 134.5-2.3 189.5 15.3 104.2 52 194.4 115.1 282.5 27.3 38.3 71.6 84.6 113.3 118.6 15.3 12.4 38.7 29.7 45.3 33.3 2.8 1.5 7 4.1 9.2 5.6 6.1 4.2 21.6 13.5 35.1 21 64 35.9 136.8 60.7 210.1 71.5 33.3 4.9 48 5.9 92.3 5.9 54.1 0 75.9-1.9 122.5-11 72.2-14 145.9-43.2 207.5-82.2 7.4-4.7 15.6-9.6 18.2-11 5.4-2.9 35.2-25 47.8-35.5 26.7-22.3 67.2-62.1 86.1-84.9 35.4-42.5 69.8-98.1 92.4-149.3 27.6-62.6 43.2-123.4 50.7-197 1.9-19.2 1.6-95.1-.6-115-4.5-41.9-10.1-71.7-21.1-112-9.2-33.8-24.6-72.9-43.1-109.5-20.6-40.9-50-86-78-119.5-12.9-15.4-58.5-61.5-73.4-74.1-25.6-21.8-49.7-40.2-61.1-46.6-2.4-1.4-10.5-6.4-17.9-11.1-80.4-50.5-174.1-82.3-269-91.2-19.4-1.8-77.4-2.7-100-1.5zm95.5 21.5c101.4 9.7 193.1 42.3 281.5 100.2 52.1 34.1 106.4 85.4 146.6 138.4 6.8 9.1 27.4 38.6 27.4 39.5 0 .2 2.4 4.4 5.4 9.3 9.1 14.9 18.1 31.1 24.9 44.7 6.9 13.7 18.9 40.2 20.2 44.4.4 1.4 1.1 2.9 1.5 3.5 1.6 2 14.1 37.7 18.4 52.7 15.7 53.5 23 101.4 24.3 158.3 1.7 80.3-11.5 156.8-39.2 228-2.6 6.6-5.5 14-6.5 16.5-3.1 8.2-17.4 38.3-23.3 49.5-18.8 34.9-33.9 58.9-53.3 84.5-15.5 20.5-25.1 31.6-46 53.6-25.4 26.5-46.6 45.5-74 66.1-12.7 9.6-36.7 25.9-45 30.5-2.7 1.5-8.3 4.8-12.4 7.3-59.8 35.8-133.7 63-203.5 74.9-71.1 12.2-148.2 11.3-219.5-2.5-95.3-18.4-194-64.9-268-126.2-25.3-21-60.7-56.1-80.9-80.2-52.4-62.7-94.8-142.5-117.6-221.5-34.2-118.5-30.9-250.5 9.3-364.5 13.4-38.1 36-86.2 54.2-115.5.5-.8 2.8-4.7 5.1-8.5 12.5-20.6 32.5-48.3 51.2-70.5 15.2-18.1 55.8-58.6 73.2-73.1 37.1-30.8 71.3-53.2 116-76.1 74.8-38.2 150.6-59 236.5-64.8 18.8-1.3 73.8-.4 93.5 1.5z"/><path d="M800.3 202.2c-1.3 1.6-14.8 95-14.1 96.9.4 1 10.3 2.8 34.6 6.2 18.8 2.7 34.5 4.6 35 4.3 1.4-.8 3.7-20.5 2.6-21.6-.5-.5-10.8-2.3-22.9-4-12.1-1.7-22-3.2-22.1-3.3-.6-1 2.2-15.7 3-15.7.6 0 8.7 1.1 17.9 2.5 9.3 1.4 18.1 2.5 19.7 2.5 3.3 0 3.4-.3 5.1-11.8 1-7 .9-8.6-.2-9.7-.8-.7-9.9-2.5-20.4-4-10.4-1.4-19.1-2.8-19.3-3-.3-.2 1.7-13.8 2.1-14.1.1 0 9.6 1.3 21 2.9 15.4 2.3 21.1 2.7 21.9 1.9.6-.6 1.7-5.3 2.5-10.3 1.1-7.5 1.1-9.5.1-10.5-.7-.7-14.1-3.1-30.3-5.3-15.9-2.3-30.4-4.3-32.1-4.6-1.9-.3-3.5 0-4.1.7zM656.1 208.5c-4.6.8-8.8 1.8-9.4 2.4-1.1 1.1-.5 6.5 8.2 65.6 4 27.6 4.9 32 6.4 32.3 2.2.5 59.3-7.9 60.9-8.9.9-.6.8-3.2-.2-10.8-1.2-8.9-1.6-10.2-3.4-10.7-1.2-.2-9.9.7-19.5 2.1-9.6 1.4-17.6 2.4-17.7 2.2-.2-.2-2.7-16.3-5.5-35.8-2.7-19.5-5.4-36.4-5.9-37.7-1.1-2.5-1.8-2.6-13.9-.7zM529 246.3c-25.8 8.8-41.4 32.5-37.2 56.7 3.4 19.7 16.3 36.6 32.9 43.1 7.9 3 21.6 3.7 30.3 1.5 18.8-4.7 34.7-19.1 37.5-33.7l.6-3.5-9.3-1.8c-5.1-1-10.5-2-11.9-2.3-2.4-.5-2.8-.1-4.3 4.4-1.9 5.7-7.3 11.4-12.8 13.8-5.3 2.2-14.9 1.9-20.1-.5-13.8-6.5-22.3-26.2-17.2-39.7 2.2-5.7 7.6-11.8 12.9-14.5 4.3-2.2 11.8-2.9 17.2-1.5l3.1.8 4.6-9.6c2.6-5.3 4.7-10.3 4.7-11.1 0-2-9.4-4.4-17.4-4.4-4.7 0-9.3.8-13.6 2.3zM973.1 254.6c-17.5 4.7-32.6 20.6-37.7 39.9-2 7.3-1.8 20.2.5 27.4 6.1 19.7 27.6 35.8 50.4 37.7 25.9 2.2 48.8-16.8 54.3-45 2.2-11.1 1-19.7-4.1-30.1-10.8-22-40.6-36-63.4-29.9zm26.4 24.8c7.3 3.3 11.4 7.3 14.6 14.1 3.5 7.2 3.7 13.2.9 21.1-6.3 18.2-23.3 26.5-39 19.2-7.4-3.4-11-6.6-14.5-13-5.5-10-3.2-24.2 5.5-34.1 9.1-10.5 20.1-12.9 32.5-7.3zM381.2 346c-6.2 6.6-11.2 12.6-11.2 13.3 0 .6 6.1 13.3 13.5 28.2 7.4 14.8 13.3 27.1 13.1 27.2-.1.2-13-5.5-28.7-12.6l-28.4-12.9-11.2 11.7c-8.2 8.5-11.2 12.3-11.3 14.2 0 1.9 1.8 4.3 7.3 9.5 3.9 3.7 18 17.2 31.2 30 13.2 12.7 25.7 24.6 27.8 26.4l3.8 3.3 8-7.9c4.3-4.3 7.9-8.6 7.9-9.5 0-.8-6-7.4-13.2-14.5-7.3-7.1-17.3-16.9-22.3-21.8l-9-8.7 9.5 4.7c5.2 2.6 18.9 9.1 30.4 14.6l21 9.9 5.8-5.8c3.8-3.8 5.8-6.5 5.8-8.1 0-1.3-6.8-15.6-15.1-31.8-8.2-16.2-14.8-29.4-14.6-29.4.3 0 2.9 2.4 5.8 5.4 13.6 13.7 40.3 38.6 41.4 38.6 2.3 0 15.5-15 15.4-17.4-.1-1.3-5.3-7.1-14.3-15.6-7.7-7.5-23.2-22.3-34.4-33s-20.9-19.6-21.6-19.8c-.7-.1-6.2 5.1-12.4 11.8zM1102 381.6c-18.4 16.8-34.6 31.5-35.9 32.8l-2.3 2.4 9.2 10.3c15.5 17.3 23.9 25.1 31.5 29.1 16 8.3 30.4 8.9 45.2 1.7 7.5-3.6 19.6-16.2 23.4-24.3 7.3-15.5 4.3-33.5-8.4-50.6-4.6-6.2-27.7-32-28.6-32-.3.1-15.7 13.8-34.1 30.6zm39.9 5.9c6.9 8.2 10 13.4 11.7 19.9 2.7 10.1-1.9 21.2-11.9 27.9-9.6 6.6-18.8 7.2-28.2 1.8-4.7-2.7-19-16.1-19-17.9 0-.8 40.7-38.2 41.5-38.1.3 0 2.9 2.9 5.9 6.4zM582.6 422.1l-2.6 3v290.5l2.8 2.7 2.9 2.8h32.2l32.3.1 2.9-2.8 2.9-2.8.1-95c.1-94 .1-95 1.9-89.6 2.9 8.7 52.8 159.9 57.9 175.8l4.7 14.3h28.3c15.6 0 28.7-.4 29.1-.8.4-.4 6.7-18.4 14-39.8 19.7-57.9 46.2-135.4 50.8-148.5l2.7-7.5.3 96.1.2 96.1 2.4 2.2 2.5 2.3 32.7-.1c32.2-.1 32.8-.2 35.1-2.3l2.3-2.1-.1-146.6V423.5l-2.9-2.3-2.8-2.2-50.4.2-50.3.3-5.7 16c-3.1 8.8-14.5 41-25.3 71.5s-22.3 62.9-25.6 71.8c-3.2 9-5.9 17-5.9 17.8 0 2-1.7 1.7-2.3-.4-.3-.9-4.7-13.4-9.7-27.7-5.1-14.3-11.6-32.8-14.5-41-2.9-8.3-9.6-27.4-15-42.5-5.4-15.1-12.2-34.5-15.2-43s-6-17.1-6.7-19l-1.3-3.5-51.1-.3-51-.2-2.6 3.1zM241.3 607.4c-16.1 3.9-27.9 14.8-34.6 31.6-3 7.6-15 70.1-13.7 71.4 1.1 1.1 15.9 3.9 17.5 3.2.8-.3 2.1-4.8 3.1-10.5 1-5.6 2.2-10.1 2.6-10.1.5 0 .8.6.8 1.3 0 2 5.8 8.4 10.4 11.6 10.4 7.2 28.8 9.4 41.8 5 21.7-7.3 35.8-28.2 35.8-52.9 0-15.1-4.6-26.6-14.4-36.4-7.4-7.3-13.8-11-24.2-13.6-8.7-2.2-17.4-2.4-25.1-.6zm21.9 26.2c6.1 2 11.7 7 15.3 13.5 2.6 4.7 3 6.4 3 12.9 0 8.1-1.7 12.6-7.1 18.9-3.5 4.3-11.5 8.1-17.9 8.8-20.2 2.1-35.9-18.3-29-37.7 4.9-14 21.1-21.4 35.7-16.4zM1266.5 610.3c-14 3.7-19.8 11.5-21.7 29.5-1.4 13.6-2.7 19.9-4.3 21.2-2.2 1.8-7.3 1.5-9.6-.6-4.8-4.2-6.3-14-3.4-21 .8-2 1.3-4 1-4.4-.9-1.4-18.1-11-19.7-11-4 0-7.5 16.1-5.9 27.4 2.5 17.7 10.7 29.6 23.7 34.6 6.2 2.3 13.4 2.3 21.6 0 10.6-3 16.6-13.9 18.3-33 1.2-14 3.4-19 8.5-19 4.1 0 7.6 3.4 9.5 9.1 2 6 1.5 11.4-1.7 17-1.1 2.1-1.8 4.4-1.5 5.2.3.8 5.1 4 10.8 7.1 11.4 6.4 10.5 6.5 14-2.4 2.7-6.9 3.7-21 1.9-28.9-4.9-22.7-22.5-35.7-41.5-30.8zM1295.7 734.7c-.3.5-.8 11-1.2 23.5l-.7 22.8h-16.1l.5-20.6.5-20.6-2.4-.9c-3.8-1.4-18.9-1.1-20.1.4-.7.9-1.2 8.4-1.2 21l-.1 19.7h-15.1l.7-21.3c.6-18.4.5-21.4-.8-22.5-1-.9-4.5-1.2-11.3-1l-9.9.3-.6 7.6c-.4 4.2-.8 19.5-1 34l-.4 26.4 12 .6c6.6.4 29.1.8 50 1l38 .4.9-34.2c.7-27 .6-34.6-.4-35.8-1-1.1-3.5-1.5-11.1-1.5-5.4 0-10 .3-10.2.7zM257.6 764.6c-17 1.8-32.9 3.7-35.4 4.4-18.1 4.5-29.2 19.5-29.2 39.5 0 24.7 13.9 41.8 35.6 43.9 6.8.7 68.9-5.5 70.4-7s-1-22.5-2.7-23.1c-.8-.3-15.3.8-32.1 2.6-32.7 3.3-35.4 3.2-41.4-1-3.3-2.4-6.8-9.5-6.8-14 .1-4.7 3.2-11.2 6.6-13.6 4.7-3.3 9.3-4.2 40.3-7.3 28.8-2.9 31.8-3.6 30.7-6.6-.2-.6-.8-5.2-1.1-10.3-.6-7-1.2-9.4-2.4-9.9-.9-.5-15.5.6-32.5 2.4zM603.4 764.1c-27 2.4-54.9 12.3-78.1 27.6-12 7.9-31.1 27-39.2 39.2-16.5 24.9-24.5 50.2-25.8 81.1-1.8 47.8 12.6 87.1 43.1 117.3 23.8 23.6 54.9 37.6 95.1 42.7 4.9.6 45 1 104.9 1h97l2.8-2.7 2.8-2.7v-49.2l-2.8-2.7-2.8-2.7h-30.2c-16.6 0-30.2-.3-30.2-.8.1-.4 2.6-2.7 5.7-5.2 16.7-13.3 30.4-39.2 34.8-65.9 2.6-15.1 1.7-43.4-1.8-58.1-11.1-46.6-40.7-83-84.1-103.5-28.2-13.3-58.1-18.4-91.2-15.4zm41.1 72.9c28.8 9.2 49.8 31.3 57.6 60.5 3 11.3 3 30.8 0 42-7.5 28.6-28.7 50.8-57.1 60.1-7.6 2.5-10 2.8-23 2.8-12.2.1-15.7-.3-22.5-2.2-14.5-4.2-27-11.6-37.3-22-17.1-17.2-25-38.4-23.9-64.1.4-10.5 1-14.1 3.5-21.8 3.8-11.2 5-13.7 11.5-23.1 11.2-16.2 30.5-29.3 49.9-33.7 9.7-2.2 32.3-1.4 41.3 1.5zM930 763.7c-53.3 3.9-94.1 35.4-102.6 79.2-2 10.2-2 31.5 0 41.1 2.4 11.5 8.3 22.5 17.2 31.9 14 14.9 26.8 21.7 64.2 34 35.7 11.8 46.8 17.5 51.1 26.3 2.3 4.8 2.8 11.9 1 16.5-2.5 6.8-11.2 12.8-23 15.8-8.7 2.3-26.9 1.6-35.2-1.4-9.9-3.5-17.9-8.4-25.2-15.4-6.3-6-7.4-6.7-11-6.7-4 .1-4.3.4-28 26.6-13.2 14.6-24 26.9-24 27.5 0 1.5 13.4 12.8 22 18.4 25.7 16.8 57.3 24.9 90.8 23.1 36.1-2 63.4-12.6 83.1-32.2 18.2-18.3 26.6-39.8 26.6-68.6 0-27.2-6-42.8-22.7-58.9-14-13.5-27.7-20.1-63.9-30.8-26.8-7.9-40.1-14.3-44.4-21.3-4.4-7.2-3.4-17 2.3-23.5 3.7-4.2 12.7-8.7 20.6-10.4 17.3-3.6 42 2.9 52.1 13.6 1.8 1.9 3.4 2.5 6.5 2.5 3.6 0 4.7-.6 7.8-3.9 2-2.2 11.9-13 22.1-24.1l18.4-20.1-.6-4.2c-.3-2.4-1.4-4.9-2.6-5.9-3.8-3.3-18-12.5-23.1-15.1-21.1-10.5-52.4-16-79.5-14zM1219 849.8c-9.7 6.2-17.3 17.6-19.9 30-1.6 7.7-1.4 21.9.5 28.3 3.5 11.8 13.4 23.8 24.1 29.3 13 6.5 31 8.5 43.2 4.7 24.6-7.6 41.1-37.5 34.6-62.5-1.5-5.6-5.7-14-7.6-15.2-1-.6-19.9 13.2-19.9 14.5 0 .3 1.1 2.8 2.5 5.5 3.3 6.5 3.3 13.3.1 20.2-7.7 16.6-31.9 19.3-47.2 5.2-6.1-5.5-8.4-10.6-8.4-18.5 0-9.4 3.7-16.7 10.8-20.9l2.9-1.7-4.6-10.5c-2.5-5.8-5.1-10.7-5.6-10.9-.6-.2-3.1 1-5.5 2.5zM214.1 917.2c0 1.3 1.9 6.7 4.2 12.2l4.2 9.8 10.9.2 10.9.1 6.3 15.9c3.5 8.7 6.4 16.4 6.4 17 0 .6-3.4 4.3-7.7 8.2l-7.7 7.1 4.5 11.6c2.4 6.4 4.9 11.9 5.6 12.1 1.1.5 75.3-73.2 76.1-75.5.3-.8-5.3-16.4-6.4-17.8-.3-.4-82-3-96.6-3.1-10.6 0-10.8 0-10.7 2.2zm69.9 30.3c-4.7 4.7-8.8 8.5-9.3 8.5-.8 0-3.7-6.2-6.3-13.3l-1.3-3.7h25.4l-8.5 8.5zM1162.1 977.4c-2.8 5.1-5.1 9.8-5.1 10.4 0 .9 10.6 7.1 32 18.4 3.6 1.9 17.2 9.2 30.4 16.3l23.9 12.8 1.7-2.3c1-1.3 3.5-5.9 5.6-10.3 3.8-7.8 3.9-7.9 1.9-9.4-1.8-1.3-41.7-22.8-70-37.7-6-3.2-11.4-6.2-11.9-6.7-2.2-2-3.7-.5-8.5 8.5zM349 1017.2c-7.4 5.5-24.6 18.1-38.2 28-13.6 9.8-25.1 18.5-25.6 19.1-.7.8 4.4 8.6 16.9 25.7 9.8 13.5 18.2 24.6 18.7 24.8 1.6.5 17.3-11.8 16.6-13.1-.4-.6-5.4-7.6-11.1-15.5-5.8-7.9-10.2-14.9-10-15.6.3-.7 11-8.8 23.8-18.1 30.9-22.4 36.4-26.6 36.4-27.7 0-1.5-11.9-17.7-13-17.7-.5.1-7.1 4.6-14.5 10.1zM1130.8 1031.2c-3.5 4-6.9 8-7.6 8.9-1 1.3 1.2 6 13.2 28.1 7.9 14.6 15.2 27.8 16.1 29.2 1 1.4 1.4 2.6.9 2.6-.4 0-14.4-5-31.1-11.1-16.6-6.1-30.7-10.9-31.2-10.7-1.2.4-16.1 17.5-16.1 18.5 0 .4 6.9 3.1 15.3 6 8.3 2.8 30.7 10.4 49.6 16.9l34.4 11.8 4.4-5c8.2-9.2 8.9-5.5-6.8-36.4-7.7-15.1-18.3-36.2-23.7-46.8-5.3-10.5-10-19.2-10.3-19.2-.4 0-3.6 3.3-7.1 7.2zM421.9 1100.3c-5.2 5.6-19.9 21.6-32.8 35.6-18.8 20.3-23.3 25.6-22.5 26.9.6.8 4.1 4.4 8 7.8l6.9 6.2 31-33.5c17.1-18.4 31.9-34.6 32.9-36l1.9-2.5-5.4-5.5c-3-3-6.6-6.3-8-7.4l-2.7-1.9-9.3 10.3zM1036.7 1130c-6.9 1.8-14.4 6-31.4 17.7-9.2 6.4-17.2 11.9-17.6 12.3-1.2 1.1-.7 2 18.4 29.7 9.5 13.6 21 30.4 25.7 37.3 4.7 6.9 9 13.1 9.6 13.8 1 1 3 0 9.9-4.8 4.7-3.3 8.9-6.5 9.2-7 .3-.5-4-7.6-9.6-15.7-5.6-8.2-10.3-15.3-10.5-15.8-.2-.6 1.3-2 3.4-3.2 3.8-2.1 4-2.1 6.8-.4 1.6.9 10.1 5.5 19 10.1l16.1 8.3 10.6-7.3c5.9-4.1 10.7-7.9 10.7-8.5 0-.6-9-5.1-20.1-10-11-4.9-20.2-9.2-20.4-9.5-.2-.4.9-3.2 2.6-6.5 3.5-7 3.8-13.1.9-20.7-2.4-6.4-8.7-13.9-14.4-17.3-4.8-2.8-13.2-3.9-18.9-2.5zm8.8 25.7c3 3.4 3.2 8.1.6 11.5-1.1 1.4-5.4 4.9-9.6 7.8-8.7 6-7.5 6.3-14.9-4.1l-4.6-6.7 7.4-5.1c4.1-2.8 8.5-5.5 9.8-6.1 3.7-1.6 8.5-.4 11.3 2.7zM475.6 1140.3c-2.5 4.1-4.8 8.1-5.1 8.9-.5 1.2 2.2 3.3 10.1 8.2 5.9 3.6 11.2 6.7 11.7 6.9.6.2-8 15.2-19.1 33.5-11.1 18.2-20.2 33.3-20.2 33.6 0 .7 18.4 11.6 19.5 11.6.6 0 9.9-14.8 20.8-32.9l19.9-32.9 7.6 4.6c15.2 9 15.9 9.3 17 8 2.5-3.2 9.2-15 9.2-16.3 0-.8-1-2-2.2-2.6-1.3-.7-15.9-9.5-32.5-19.6-16.7-10-30.7-18.3-31.2-18.3s-3 3.3-5.5 7.3zM912.1 1192.9c-16.1 6-29.8 11.4-30.3 11.9-1.2 1.2-2.4-2.3 17.1 50.6 8.3 22.5 15.5 41.4 16 41.9 1.1 1.1 65.1-22.2 65.8-24 .6-1.5-5.8-19.1-7.2-19.7-.6-.2-10.2 2.9-21.3 7-11.2 4.1-20.8 7.4-21.5 7.4-1.1 0-6.1-12.5-5.9-14.7 0-.4 2.4-1.5 5.4-2.5 16.4-5.6 32.8-12.2 32.8-13.2 0-2.2-6.8-19-7.8-19.4-.6-.2-9.1 2.6-18.9 6.3-9.7 3.6-18.4 6.4-19.2 6.3-.8-.2-2.4-3.2-3.7-6.8-2-5.9-2.1-6.6-.6-7.1 30.3-11.1 38.8-14.2 39.2-14.6.2-.2-1.1-4.9-2.9-10.4-2.9-8.4-3.7-9.9-5.5-9.9-1.2.1-15.3 5-31.5 10.9zM570.1 1186.4c-.7.8.4 6.1 3.4 16.7 2.5 8.4 6.6 22.7 9.1 31.6l4.7 16.1-6 19.4c-3.3 10.6-5.8 19.8-5.6 20.4.6 1.6 21.3 7.8 22.4 6.7.5-.5 3.6-9.6 6.9-20.3 3.2-10.6 6.3-19.6 6.8-19.9.7-.5 40.8-33.7 47.8-39.6 1.6-1.3 2.1-2.5 1.6-3.3-.8-1.2-22-8.2-24.6-8.2-.6 0-7.6 5.9-15.6 13-7.9 7.1-14.6 12.7-14.9 12.5-.2-.3-2.3-8.9-4.6-19.2l-4.2-18.8-13.1-4.1c-9.9-3.2-13.4-3.9-14.1-3zM796.9 1216.3c-11.2 3.8-16.9 8.6-21.5 17.7-2.3 4.5-2.8 6.8-2.8 13-.1 17.5 7 24.5 29.7 29.6 13.2 3 17.8 5.1 19.2 8.8 1.5 4.4-1 7.8-7.4 9.9-6.5 2.2-13.3 1.1-19.4-2.9-2.1-1.4-4.3-2.4-4.8-2.2-.5.2-4 4.6-7.8 9.8-8 11-8 11 2.2 15.5 17.3 7.8 41 4.6 53.1-7.2 6.3-6.1 9.1-13.2 9-22.8 0-9.2-1.5-13.4-6.8-19.3-4.7-5.2-10.5-7.8-22.4-10.2-17.2-3.5-20-5.3-19-12 .9-6.2 13.8-9.1 22.1-5.1 2.4 1.1 4.8 2.1 5.3 2.1 1.6 0 13.5-17.1 13.2-18.9-.2-.9-3-3-6.3-4.6-5.5-2.7-7-3-17.5-3.3-9.9-.2-12.4.1-18.1 2.1zM352.2 157.1c-5.2 2.6-8.6 7.2-8.6 11.6 0 5 5 11.5 10.2 13.3 4.1 1.4 4.5 1.4 8.9-1 6-3.2 8.8-7 8.8-12 0-4.1-2.3-8-6.6-11.2-3.9-2.9-7.9-3.1-12.7-.7zM248.6 264.2c2 4.6 4.5 10.7 5.6 13.5 1.2 2.9 2.4 5.3 2.7 5.3.4 0 4.2-3.5 8.4-7.8l7.8-7.9-13.5-5.6c-7.5-3.2-13.8-5.7-14-5.7-.3 0 1.1 3.7 3 8.2zM1296.3 295.9c-9.8 3.3-18.3 12.6-20.5 22.3-2 9 3.5 20.8 12.4 26.4 5.9 3.7 15.6 4.5 22 1.6 5.8-2.5 12.2-8.3 15.6-14.1 2.3-3.9 2.7-5.8 2.7-12.1 0-6.4-.4-8.2-2.7-12.1-3.7-6.3-8.8-10.5-15-12.4-6.5-1.9-8.1-1.9-14.5.4zM1366.5 436.8c-.3.4 6 13.8 7 15 .2.2 6.1-2.6 13.1-6.2 8.9-4.5 12.1-6.5 10.4-6.6-1.4 0-8.7-.7-16.3-1.3-7.6-.7-14-1.1-14.2-.9zM99.3 454.5c-4.1 1.7-6.9 7.1-5.9 11.1 2.2 8.8 25.4 21.6 39.3 21.8 4.8.1 6.8-.4 9-2 3.7-2.7 5.7-6.9 4.8-10.2-1.1-4.4-9.6-11.7-18.7-16.1-12.6-6.1-21.8-7.6-28.5-4.6zM1411.5 487.6c-14.8 3.7-30.5 14.4-30.5 20.9 0 3.8 2.6 8.3 6 10 11 5.7 42.7-7.5 45.9-19.1 1.1-3.8-.8-8.6-4.1-10.8-3.6-2.3-10.5-2.7-17.3-1zM80 516c-9.4 1.6-13.2 7.8-9.4 15.1 3.4 6.6 21.7 15.1 35.5 16.6 8 .8 14.1-1.5 16.3-6.1 2.1-4.4 2-5.4-.4-9.4-5.2-8.6-30.2-18.2-42-16.2zM1426.4 552c-14 3.7-25.4 11.5-25.4 17.6 0 4.2 2.6 7.9 6.9 9.9 11.2 5 40-4.4 45.4-14.7 1.8-3.7 1.8-3.9 0-7.5-3.5-7.3-12.6-9.1-26.9-5.3zM46.4 712.9c-11.4 5.8-16.7 17.9-13 29.9 5.8 18.6 31.5 24.5 45.5 10.4 5.3-5.3 7.1-10.1 7.1-18.6 0-6.7-1.6-10.9-6-16-5-5.7-10.2-7.9-19.5-8.4-7.4-.3-8.5-.1-14.1 2.7zM1444.3 791c-12.1 2.5-20.3 12.5-20.3 24.8 0 7.4 1.6 11.6 6.3 16.9 14.1 15.5 40.6 10.2 46.3-9.2 3-10.3-.4-21-8.4-27.2-6.2-4.7-16-6.9-23.9-5.3zM92.5 1008.9c-7.4 3.4-10.2 8.9-8 15.5 3.7 10.8 14 13.7 21.9 6.2 4.7-4.4 5.6-9.4 2.7-15.3-1.6-3.3-3.2-4.9-6.4-6.3-5.2-2.4-5.3-2.4-10.2-.1zM1382.7 1042.2c-2.6 5.6-4.6 10.2-4.4 10.4.1.1 7.2.5 15.7.9l15.5.7-5.1-5.4c-2.9-2.9-7.5-7.9-10.4-11.1-2.9-3.1-5.6-5.7-5.9-5.7-.4 0-2.8 4.6-5.4 10.2zM130.5 1073.6c-10.1 5.2-11.6 6.3-9.5 6.8 3.5.7 30.3 2.7 30.7 2.2.7-.7-7.1-15.6-8.2-15.5-.5.1-6.4 3-13 6.5zM155.8 1125.1c-7.2 1.9-12.5 9.2-11.3 15.5.8 4.5 5.7 10 10.1 11.4 7.1 2.4 16.5-5.3 16.7-13.5.2-7.5-8.8-15.3-15.5-13.4zM213.5 1163c-2.8 1.1-7.2 6-8.4 9.3-2.6 6.7 3.9 16.4 11.5 17.4 7.2.9 15-6.5 14.8-14.1-.2-9.4-9.7-16.1-17.9-12.6zM1241.3 1221.4c-3.4 1.6-8.3 8-8.3 11 0 1 .9 3.4 2.1 5.3 5.6 9 17.4 8 22.6-2.1 4.6-8.9-6.6-18.6-16.4-14.2zM1267.6 1246.1c-3.6 1-6.1 3.3-7.6 6.9-2.2 5.3 3.7 12 10.5 12 3.9 0 9.8-5.9 9.8-9.9 0-5.7-6.8-10.6-12.7-9zM1193.9 1265.5c-3.3 1.8-5.9 5.7-5.9 9 0 6 8.4 19 17.8 27.6 8.6 7.8 15.3 9.9 20.8 6.3 2.8-1.9 5.4-6.3 5.4-9.2 0-4.4-7.3-16.4-14.4-23.7-10-10.3-17.4-13.4-23.7-10zM1142.5 1306.2c-3.3 3-3.7 4-3.7 7.8.2 11.8 17.6 34.7 28 36.6 7.2 1.4 14.2-5.8 12.7-12.9-2-9.2-13.5-26-21.5-31.3-2.1-1.4-5.6-2.8-7.8-3.1-3.5-.5-4.4-.1-7.7 2.9zM561.3 1400c-3.4 2-6.3 7.5-6.3 11.8 0 5.4 7 12.2 12.5 12.2 2.9 0 7.6-3 9.5-6.3 4.2-6.9 1.6-15.3-5.6-18.3-4.5-1.9-6.3-1.8-10.1.6zM553.4 1433.9c-6 3.6-6.9 13-1.7 17.1 6 4.7 12 2.9 14.8-4.4 1.6-4.1 1.6-4.6-.1-8.1-1.1-2.4-2.9-4.2-5-5.1-4.2-1.8-4.3-1.8-8 .5zM622 1431.2c0 .2-1.1 6.1-2.5 13.2s-2.4 13.1-2.2 13.3c.6.5 21-22.2 20.9-23.3-.1-1.3-16.2-4.4-16.2-3.2zM829.5 1421.6c-9.1 2.3-15.1 6.7-18.7 13.8-2.5 4.9-3.4 14.6-1.9 20.3.6 2.2 2.6 6.3 4.4 8.9 7 10.3 20.5 13.7 32.2 7.9 9.7-4.7 13.9-12.6 13.3-24.9-.5-11.8-5.2-19.7-13.9-23.8-3.7-1.8-12.2-3-15.4-2.2z"/>
   </symbol>
   <symbol id="email" viewBox="0 0 14 14" width="512" height="512">
      <g fill="#727272"><path d="M7 9L5.268 7.484.316 11.73c.18.166.423.27.69.27h11.987c.267 0 .51-.104.688-.27L8.733 7.483 7 9z"/><path d="M13.684 2.27c-.18-.167-.422-.27-.69-.27H1.006c-.267 0-.51.104-.69.273L7 8l6.684-5.73zM0 2.878v8.308L4.833 7.08M9.167 7.08L14 11.185v-8.31"/></g>
   </symbol>
   <symbol id="phone" viewBox="0 0 578.106 578.106" width="512" height="512">
      <path d="M577.83 456.128c1.225 9.385-1.635 17.545-8.568 24.48l-81.396 80.78c-3.672 4.08-8.465 7.552-14.38 10.405-5.917 2.857-11.73 4.693-17.44 5.508-.408 0-1.635.106-3.676.31-2.037.203-4.69.307-7.953.307-7.754 0-20.3-1.326-37.64-3.98s-38.556-9.18-63.646-19.583c-25.095-10.404-53.552-26.012-85.375-46.818-31.823-20.805-65.688-49.367-101.592-85.68-28.56-28.152-52.224-55.08-70.992-80.783-18.767-25.705-33.863-49.47-45.287-71.3-11.425-21.827-19.993-41.615-25.705-59.363S4.59 177.362 2.55 164.51-.306 141.56.102 134.216c.408-7.344.612-11.424.612-12.24.816-5.712 2.652-11.526 5.508-17.442s6.324-10.71 10.404-14.382L98.022 8.756c5.712-5.712 12.24-8.568 19.584-8.568 5.304 0 9.996 1.53 14.076 4.59s7.548 6.834 10.404 11.322l65.484 124.236c3.672 6.528 4.692 13.668 3.06 21.42-1.632 7.752-5.1 14.28-10.404 19.584l-29.988 29.988c-.816.816-1.53 2.142-2.142 3.978s-.918 3.366-.918 4.59c1.632 8.568 5.304 18.36 11.016 29.376 4.896 9.792 12.444 21.726 22.644 35.802s24.684 30.293 43.452 48.653c18.36 18.77 34.68 33.354 48.96 43.76 14.277 10.4 26.215 18.053 35.803 22.95 9.588 4.895 16.932 7.853 22.03 8.87l7.65 1.53c.815 0 2.144-.306 3.978-.917 1.837-.613 3.163-1.326 3.98-2.143l34.883-35.496c7.348-6.526 15.912-9.79 25.705-9.79 6.938 0 12.443 1.223 16.523 3.672h.612l118.115 69.768c8.57 5.308 13.67 12.038 15.303 20.198z" fill="#727272"/>
   </symbol>
   <symbol id="time" viewBox="0 0 474.608 474.608" width="512" height="512">
      <path d="M405.1 69.514c-92.68-92.678-242.946-92.678-335.592 0-92.678 92.678-92.678 242.945 0 335.59s242.945 92.68 335.59 0c92.68-92.676 92.68-242.944 0-335.59zm-41.73 182.622H236.874l-.636.127c-8.773 0-15.892-7.15-15.892-15.89V77.332c0-8.772 7.12-15.89 15.89-15.89 8.773 0 15.892 7.118 15.892 15.89v143.02h111.24c8.77 0 15.89 7.12 15.89 15.892 0 8.772-7.12 15.89-15.89 15.89z" fill="#727272"/>
   </symbol>
</svg>